<svg width="1200" height="900" viewBox="0 0 1200 900" fill="none" xmlns="http://www.w3.org/2000/svg">
  <rect width="1200" height="900" rx="48" fill="#F3EEE6"/>
  <rect x="84" y="88" width="1032" height="724" rx="36" fill="#FFFFFF" stroke="#DCD6CB"/>
  <path d="M156 212H534L590 274H1044V702C1044 726.091 1024.09 746 1000 746H200C175.909 746 156 726.091 156 702V212Z" fill="#FAF8F5" stroke="#D9D3C8"/>
  <path d="M156 212H452L508 274H1044" stroke="#D9D3C8" stroke-width="18" stroke-linecap="round"/>
  <rect x="228" y="344" width="396" height="28" rx="14" fill="#E5DED2"/>
  <rect x="228" y="402" width="540" height="18" rx="9" fill="#E5DED2"/>
  <rect x="228" y="440" width="470" height="18" rx="9" fill="#E5DED2"/>
  <rect x="228" y="478" width="430" height="18" rx="9" fill="#E5DED2"/>
  <rect x="228" y="556" width="200" height="18" rx="9" fill="#D4AF37" opacity="0.58"/>
  <circle cx="872" cy="504" r="110" fill="#DDE6F8"/>
  <path d="M810 542C830 496 868 472 916 472C938 472 958 478 976 489" stroke="#BFCBE8" stroke-width="20" stroke-linecap="round"/>
  <path d="M828 394L924 504L874 548L792 468L828 394Z" fill="#EEF2FA" stroke="#C7D3EE"/>
  <circle cx="872" cy="504" r="34" fill="#FFFFFF" stroke="#C7D3EE"/>
</svg>
